<svg width="35" height="35" viewBox="0 0 35 35" fill="none" xmlns="http://www.w3.org/2000/svg">
<path d="M15.7143 17.2857V29.7857H10.3571C9.40994 29.7857 8.50153 29.4094 7.83176 28.7397C7.16199 28.0699 6.78571 27.1615 6.78571 26.2143V17.2857H15.7143ZM19.2857 17.2857H28.2143V26.2143C28.2143 27.1615 27.838 28.0699 27.1682 28.7397C26.4985 29.4094 25.5901 29.7857 24.6429 29.7857H19.2857V17.2857ZM15.7143 10.1429V15.5H6.33929C5.98409 15.5 5.64343 15.3589 5.39227 15.1077C5.1411 14.8566 5 14.5159 5 14.1607V11.4821C5 11.1269 5.1411 10.7863 5.39227 10.5351C5.64343 10.284 5.98409 10.1429 6.33929 10.1429H15.7143ZM19.2857 10.1429H28.6607C29.0159 10.1429 29.3566 10.284 29.6077 10.5351C29.8589 10.7863 30 11.1269 30 11.4821V14.1607C30 14.5159 29.8589 14.8566 29.6077 15.1077C29.3566 15.3589 29.0159 15.5 28.6607 15.5H19.2857V10.1429ZM13.0357 3H13.0393C13.7885 2.99993 14.5135 3.26596 15.0848 3.75065C15.6562 4.23534 16.0368 4.90719 16.1589 5.64643L16.6071 8.35714H13.0357C12.3253 8.35714 11.644 8.07494 11.1417 7.57261C10.6393 7.07028 10.3571 6.38897 10.3571 5.67857C10.3571 4.96817 10.6393 4.28687 11.1417 3.78454C11.644 3.28221 12.3253 3 13.0357 3ZM21.9643 3C22.6747 3 23.356 3.28221 23.8583 3.78454C24.3607 4.28687 24.6429 4.96817 24.6429 5.67857C24.6429 6.38897 24.3607 7.07028 23.8583 7.57261C23.356 8.07494 22.6747 8.35714 21.9643 8.35714H18.3929L18.8411 5.64643C18.9632 4.90719 19.3438 4.23534 19.9152 3.75065C20.4865 3.26596 21.2115 2.99993 21.9607 3H21.9643Z" fill="white"/>
</svg>
